<?xml version="1.0" encoding="utf-8"?>
<!-- Generator: Adobe Illustrator 24.1.0, SVG Export Plug-In . SVG Version: 6.00 Build 0)  -->
<svg version="1.1" id="Layer_1" xmlns="http://www.w3.org/2000/svg" xmlns:xlink="http://www.w3.org/1999/xlink" x="0px" y="0px"
	 viewBox="0 0 400 400" style="enable-background:new 0 0 400 400;" xml:space="preserve">
<style type="text/css">
	.st0{fill:url(#SVGID_1_);}
</style>
<g>
	
		<linearGradient id="SVGID_1_" gradientUnits="userSpaceOnUse" x1="1.3564" y1="207.234" x2="398.773" y2="207.234" gradientTransform="matrix(1 0 0 -1 0 402)">
		<stop  offset="0" style="stop-color:#2BC4F3"/>
		<stop  offset="0.5" style="stop-color:#00AEEE"/>
		<stop  offset="1" style="stop-color:#0095DA"/>
	</linearGradient>
	<path class="st0" d="M311.3,113.1c55.3,0,107.1,54,80.1,117c-13.3,31.1-39.4,47.2-72.3,51.9c-26.1,3.7-50-3.9-72.4-16.8
		c-26-15-46.3-35.9-63.1-60.6c-15.3-22.6-32.7-43.4-55.9-58.5c-19.3-12.6-40.2-18.2-62.5-9.8c-25.5,9.5-42.6,26.9-45.3,55.2
		c-2,21.2,6.9,38.3,22.5,52.1c20.1,17.7,43.5,22.3,69.3,17c25.4-5.2,46-18.8,63.6-37.4c0.5-0.6,1.1-1.1,1.6-1.7
		c1.5-1.7,3.4-2.5,4.8-0.5c0.7,1,0.7,3.6-0.1,4.5C157,255.2,126.3,273.6,87,274c-44.9,0.5-91.7-38.8-85-91.8
		c3.8-29.6,20.9-50.3,46.4-64.4c24.5-13.6,50.1-14,76.2-5.6c26.7,8.6,48.7,24.5,68.3,44.1c11.6,11.7,20.5,25.5,30.4,38.5
		c13.7,18.1,29.2,34.4,48.8,46.4c17.7,10.9,36.6,15.7,57.5,10.6c35.5-8.8,57-45.1,45.3-78.2c-9.4-26.7-29.5-42-56.8-46.4
		c-27.7-4.4-52.8,4.1-75,20.5c-7.6,5.6-14.3,12.5-21.3,18.9c-1.5,1.4-3,3.2-5.2,1.4c-2.2-1.9-0.8-3.6,0.5-5.2
		c20.4-25,45.5-42.4,77.9-48c2.6-0.5,5.3-0.9,7.9-1.1C305.7,113.3,308.7,113.3,311.3,113.1z"/>
</g>
</svg>
